<?xml version="1.0" encoding="utf-8"?>
<!-- Generator: Adobe Illustrator 16.0.0, SVG Export Plug-In . SVG Version: 6.00 Build 0)  -->
<!DOCTYPE svg PUBLIC "-//W3C//DTD SVG 1.0//EN" "http://www.w3.org/TR/2001/REC-SVG-20010904/DTD/svg10.dtd">
<svg version="1.0" id="Ebene_1" xmlns="http://www.w3.org/2000/svg" xmlns:xlink="http://www.w3.org/1999/xlink" x="0px" y="0px"
	 width="699.988px" height="699.988px" viewBox="0 0 699.988 699.988" enable-background="new 0 0 699.988 699.988"
	 xml:space="preserve">
<g>
	<path fill="#000000" d="M699.98,71.652V28.348C699.98,12.756,687.224,0,671.633,0H628.33c-15.58,0-28.326,12.735-28.348,28.311
		C599.963,12.736,587.215,0,571.636,0h-43.305c-15.592,0-28.348,12.756-28.348,28.348v0.001C499.984,12.756,487.228,0,471.64,0
		h-43.305c-15.578,0-28.326,12.735-28.348,28.311C399.967,12.736,387.222,0,371.642,0h-43.304c-15.583,0-28.336,12.746-28.347,28.328
		C299.981,12.745,287.23,0,271.646,0h-43.303c-15.593,0-28.349,12.756-28.349,28.348v0.001C199.995,12.756,187.24,0,171.649,0
		h-43.304c-15.592,0-28.347,12.756-28.347,28.348l0,0C99.997,12.756,87.241,0,71.652,0H28.346C12.756,0,0,12.756,0,28.347v43.304
		c0,15.578,12.735,28.325,28.31,28.347C12.736,100.019,0,112.765,0,128.344v43.305c0,15.591,12.756,28.347,28.347,28.347h0.001
		C12.756,199.996,0,212.752,0,228.344v43.302c0,15.585,12.746,28.336,28.328,28.348C12.745,300.004,0,312.755,0,328.339v43.307
		c0,15.592,12.756,28.348,28.347,28.348h0.001C12.756,399.994,0,412.75,0,428.342v43.303c0,15.592,12.756,28.348,28.347,28.348h0.001
		C12.756,499.992,0,512.748,0,528.34v43.303c0,15.576,12.735,28.324,28.31,28.346C12.736,600.01,0,612.756,0,628.336v43.305
		c0,15.59,12.756,28.346,28.347,28.348h43.306c15.584,0,28.336-12.746,28.346-28.328c0.012,15.582,12.762,28.328,28.348,28.328
		h43.304c15.584,0,28.335-12.746,28.345-28.328c0.011,15.582,12.763,28.328,28.349,28.328h43.303
		c15.584,0,28.335-12.746,28.346-28.328c0.012,15.582,12.763,28.328,28.347,28.328h43.304c15.58,0,28.326-12.734,28.346-28.311
		c0.021,15.574,12.77,28.311,28.348,28.311h43.305c15.59,0,28.346-12.756,28.346-28.348c0,15.592,12.756,28.348,28.348,28.348h43.305
		c15.578,0,28.326-12.734,28.346-28.311c0.021,15.574,12.77,28.311,28.348,28.311h43.305c15.592,0,28.348-12.756,28.348-28.348
		v-43.305c0-15.58-12.734-28.326-28.311-28.348c15.574-0.021,28.311-12.768,28.311-28.348V528.34
		c0-15.592-12.756-28.348-28.348-28.348c15.592,0,28.348-12.756,28.348-28.346v-43.305c0-15.594-12.756-28.35-28.348-28.35
		c15.592,0,28.348-12.756,28.348-28.346v-43.307c0-15.584-12.746-28.335-28.328-28.346c15.582-0.011,28.328-12.762,28.328-28.347
		v-43.304c0-15.592-12.756-28.348-28.348-28.348c15.592,0,28.348-12.756,28.348-28.347v-43.306c0-15.578-12.734-28.325-28.311-28.347
		C687.246,99.976,699.98,87.23,699.98,71.652z M599.982,228.344v43.303c0,15.585,12.744,28.336,28.328,28.347
		c-15.584,0.011-28.328,12.762-28.328,28.346v43.31c0,15.59,12.756,28.346,28.348,28.346c-15.592,0-28.348,12.756-28.348,28.348
		v43.305c0,15.59,12.756,28.346,28.348,28.346c-15.592,0-28.348,12.756-28.348,28.35v43.301c0,15.58,12.734,28.326,28.311,28.348
		c-15.563,0.021-28.289,12.746-28.311,28.309c-0.02-15.574-12.768-28.311-28.346-28.311h-43.305
		c-15.592,0-28.348,12.756-28.348,28.35c0-15.592-12.756-28.35-28.346-28.35h-43.303c-15.578,0-28.326,12.736-28.348,28.311
		c-0.02-15.574-12.766-28.311-28.346-28.311h-43.304c-15.583,0-28.335,12.746-28.347,28.328
		c-0.011-15.582-12.762-28.328-28.346-28.328h-43.303c-15.587,0-28.338,12.746-28.349,28.328
		c-0.01-15.582-12.761-28.328-28.345-28.328h-43.304c-15.587,0-28.337,12.746-28.348,28.328c-0.01-15.568-12.74-28.307-28.308-28.326
		c15.576-0.023,28.312-12.771,28.312-28.352V528.34c0-15.592-12.756-28.348-28.347-28.348c15.591,0,28.347-12.756,28.347-28.346
		v-43.305c0-15.594-12.756-28.35-28.347-28.35c15.591,0,28.347-12.756,28.347-28.346v-43.307c0-15.584-12.746-28.335-28.328-28.346
		c15.582-0.011,28.328-12.762,28.328-28.347v-43.303c0-15.593-12.756-28.349-28.347-28.349c15.591,0,28.347-12.756,28.347-28.347
		v-43.305c0-15.579-12.734-28.326-28.309-28.348c15.565-0.021,28.297-12.758,28.307-28.327c0.011,15.582,12.761,28.328,28.348,28.328
		h43.304c15.591,0,28.346-12.756,28.346-28.347c0,15.591,12.756,28.347,28.349,28.347h43.303c15.584,0,28.335-12.746,28.346-28.328
		c0.012,15.582,12.764,28.328,28.347,28.328h43.305c15.578,0,28.324-12.734,28.346-28.309c0.021,15.573,12.768,28.309,28.348,28.309
		h43.305c15.588,0,28.344-12.756,28.344-28.347c0,15.591,12.756,28.347,28.35,28.347h43.303c15.58,0,28.326-12.734,28.348-28.309
		c0.021,15.561,12.746,28.286,28.309,28.308c-15.574,0.021-28.311,12.769-28.311,28.348v43.305c0,15.591,12.756,28.347,28.35,28.347
		C612.738,199.996,599.982,212.752,599.982,228.344z"/>
</g>
<g>
	<path fill="#000000" d="M499.99,271.65v-43.304c0-15.591-12.756-28.347-28.347-28.347H428.34c-15.579,0-28.325,12.735-28.347,28.309
		c-0.021-15.574-12.768-28.309-28.346-28.309h-43.305c-15.583,0-28.336,12.746-28.347,28.328
		c-0.01-15.583-12.762-28.328-28.346-28.328h-43.304c-15.592,0-28.348,12.756-28.348,28.347v43.304
		c0,15.584,12.746,28.336,28.329,28.346c-15.583,0.01-28.329,12.76-28.329,28.345v43.309c0,15.584,12.746,28.336,28.329,28.346
		c-15.583,0.011-28.329,12.763-28.329,28.349v43.302c0,15.591,12.756,28.347,28.348,28.347h43.304
		c15.584,0,28.336-12.745,28.346-28.327c0.011,15.582,12.763,28.327,28.347,28.327h43.305c15.578,0,28.325-12.734,28.346-28.309
		c0.021,15.573,12.768,28.309,28.347,28.309h43.305c15.591,0,28.347-12.756,28.347-28.347v-43.302
		c0-15.586-12.745-28.338-28.327-28.349c15.582-0.01,28.327-12.762,28.327-28.346v-43.309c0-15.584-12.745-28.334-28.327-28.345
		C487.245,299.986,499.99,287.234,499.99,271.65z M399.993,271.688c0.021,15.566,12.757,28.298,28.326,28.308
		c-15.569,0.01-28.306,12.74-28.326,28.308c-0.021-15.567-12.757-28.297-28.325-28.308
		C387.236,299.986,399.972,287.254,399.993,271.688z M299.995,271.668c0.011,15.576,12.751,28.317,28.328,28.327
		c-15.576,0.01-28.317,12.75-28.328,28.327c-0.01-15.576-12.751-28.316-28.327-28.327
		C287.244,299.986,299.986,287.243,299.995,271.668z M299.995,428.322c-0.01-15.576-12.751-28.317-28.327-28.328
		c15.576-0.01,28.317-12.751,28.327-28.326c0.011,15.575,12.751,28.316,28.328,28.326
		C312.748,400.005,300.007,412.746,299.995,428.322z M399.993,428.303c-0.021-15.568-12.757-28.3-28.325-28.311
		c15.568-0.01,28.306-12.74,28.325-28.308c0.021,15.566,12.757,28.298,28.326,28.308C412.75,400.005,400.013,412.735,399.993,428.303
		z"/>
</g>
</svg>
