<?xml version="1.0" encoding="utf-8"?>
<!-- Generator: Adobe Illustrator 16.0.0, SVG Export Plug-In . SVG Version: 6.00 Build 0)  -->
<!DOCTYPE svg PUBLIC "-//W3C//DTD SVG 1.0//EN" "http://www.w3.org/TR/2001/REC-SVG-20010904/DTD/svg10.dtd">
<svg version="1.0" id="Ebene_1" xmlns="http://www.w3.org/2000/svg" xmlns:xlink="http://www.w3.org/1999/xlink" x="0px" y="0px"
	 width="699.988px" height="699.988px" viewBox="0 0 699.988 699.988" enable-background="new 0 0 699.988 699.988"
	 xml:space="preserve">
<g>
	<path fill="#000000" d="M590.031,12.487l-13.795,7.567l-13.791-1.93l-13.792-4.102l-13.799,3.657L521.055,7.485l-13.803-6.111
		l-13.804,17.039L479.653,5.889l-13.789-5.144L452.071,12.38L438.27,0.633L424.475,12.42l-13.8-1.065l-13.804-8.048l-0.002-2.161
		l-13.795,7.165l-13.789,2.779l-13.793-2.149l-13.797,10.3l-13.792-7.882L314.095,0.261L300.292,24.64l-13.796-4.004l-13.791,3.153
		l-13.792-3.87L245.115,7.33l-13.796,14.071l-13.804-7.443l-13.803-3.063l-13.795-3.594l-13.791,15.205l-13.792-11.871
		l-13.799-6.444L134.741,18.78l-13.802-3.126l-13.804-2.749L93.338,4.192l-13.791,12.87l-13.792,6.967L51.954,0.81L38.16,22.273
		l-13.803-8.372l-8.051,3.589l2.969,8.019L0,39.293l2.246,13.786l3.81,13.794L4.959,80.66l0.256,13.797l2.683,13.799l-5.646,13.788
		l13.495,13.783L18,149.614l3.791,13.794l-4.615,13.787L7.896,190.99L3.86,204.789l15.789,13.788L7.435,232.359l2.269,13.787
		l14.217,13.792L4.994,273.726l7.51,13.797L9.92,301.322l-1.796,13.787l14.436,13.783l-5.267,13.787l2.976,13.793l-7.778,13.789
		l0.762,13.797l5.41,13.799L1.984,411.642l9.438,13.785l7.236,13.787L2.626,453.006l6.141,13.789l11.534,13.799l-7.819,13.799
		l-0.232,13.787l7.326,13.783L4.933,535.746l-2.912,13.791l10.937,13.787l-9.858,13.801l18.47,13.797L1.704,604.711l4.06,13.781
		l6.055,13.787l5.201,13.793l-9.116,13.787l6.051,13.799l-4.44,14.836l14.832,6.51l13.792-6.752l13.792-5.396l13.799,3.691
		l13.794,4.207l13.805,4.281l13.803-9.207l13.793,5.84l13.792,4.781l13.792-12.721l13.8-2.945l13.795,6.49l13.804-10.053
		l13.803-1.564l13.794,14.918l13.792,5.793l13.791-22.162l13.8,24.551l13.795-5.871l13.804,2.248l13.804-5.074l13.793-4.496
		l13.791-3.713l13.793,11.639l13.798-4.688l13.795-6.826l13.803,9.383l13.803,6.656l0.002-12.527l13.793,10.631l13.788-1.527
		l13.793-2.811l13.799,6.387l13.796-4.322l13.801-7.01l13.805,10.975l13.795,2.18l13.789-7.219l13.793-16.066l13.799,5.115
		l13.792,14.006l13.806-19.332l13.805-0.27l13.793,9.563l13.789-3.488l13.793,4.496l13.799-1.188l13.793-8.295l13.804,19.5
		l8.731-14.436l-0.426-8.703l13.789-13.785l-8.344-13.787l9.145-13.791l-7.609-13.789l10.003-13.799l-19.281-13.797l1.326-13.789
		l12.096-13.785l-1.596-13.787l-16.724-13.791l23.613-13.787l1.834-13.799l0.496-13.797l0.147-13.791l-9.467-13.783l6.365-13.787
		l-3.438-13.793l1.127-13.787l-13.179-13.799l-1.229-13.799l1.219-13.789l12.533-13.783l-14.847-13.789l18.802-13.792l-7.89-13.79
		l-7.17-13.797l-6.576-13.798l19.863-13.788l-7.356-13.783l0.022-13.787l-14.119-13.792l9.496-13.789l14.646-13.797l-8.353-13.797
		l0.115-13.79l-13.633-13.783l-0.479-13.787l4.418-13.792l-2.358-13.787l15.217-13.799l4.727-13.797l0.275-13.789L676.91,80.67
		l-3.022-13.787l16.916-13.792l-9.32-13.785l-0.399-13.8l13.108-21.421l-21.406,6.775l-13.789,3.675l-13.791,1.549L631.431,3.908
		L617.636,0l-13.974,5.608L590.031,12.487z M590.794,204.787l7.561,13.788l-1.928,13.783l-4.099,13.787l3.652,13.792l-10.186,13.789
		l-6.107,13.797l17.025,13.797l-12.515,13.789l-5.139,13.783l11.623,13.787l-11.738,13.793l11.775,13.789l-1.064,13.797
		l-8.039,13.799l-2.159,13.789l7.161,13.785l2.775,13.787l-2.146,13.793l10.291,13.787l-7.875,13.799l-11.093,13.799l24.359,13.787
		l-4,13.783l3.148,13.787l-3.865,13.791l-12.58,13.789l14.061,13.797l-8.092,15.383l-15.373-2.408l-13.79-3.594l-13.793,15.205
		l-13.799-11.873l-13.795-6.445l-13.803,14.59l-13.804-3.125l-13.795-2.748l-13.789-8.717l-13.793,12.873l-13.799,6.967
		l-13.795-23.221l-13.8,21.463l-13.803-8.369l-0.003,5.973l-13.795,0.574l-13.789-19.289l-13.793,2.246l-13.799,3.814l-13.793-1.098
		l-13.803,0.256l-13.804,2.686l-13.796-5.65l-13.796,13.496l-13.792,2.252l-13.799,3.795l-13.794-4.617l-13.804-9.287l-13.803-4.039
		l-13.795,15.799l-13.79-12.219l-13.792,2.27l-13.799,14.23l-13.795-18.943l-13.802,7.518l-13.358-2.402l1.982-13.34l-14.435-13.785
		l5.267-13.787l-2.973-13.789l7.776-13.789l-0.762-13.797l-5.41-13.799l16.674-13.789l-9.437-13.783l-7.237-13.787l16.034-13.793
		l-6.142-13.789L97.385,411.65l7.82-13.799l0.23-13.789l-7.325-13.783l14.64-13.789l2.912-13.794l-10.937-13.788l9.858-13.797
		l-18.465-13.8l19.863-13.788l-4.062-13.783l-6.055-13.787l-5.199-13.792l9.115-13.788l-6.051-13.797l4.873-13.799l6.071-13.788
		l-6.748-13.783l-5.389-13.787l3.688-13.792l4.204-13.789l4.277-13.797l-8.722-14.945l14.942,5.362l13.792,4.781l13.794-12.723
		l13.797-2.942l13.795,6.488l13.804-10.055l13.804-1.563l13.793,14.917l13.792,5.794l13.791-22.164l13.8,24.553l13.795-5.874
		l13.804,2.249l13.805-5.073l13.794-4.496l13.79-3.713l13.794,11.637l13.797-4.687l13.793-6.826l13.805,9.385l13.803,6.653
		l0.002-12.525l13.794,10.629l13.787-1.526l13.793-2.809l13.8,6.384l13.793-4.322l13.803-7.01l13.803,10.976l13.795,2.178
		l13.791-7.217l13.791-16.068l13.799,5.114l13.795,14.006l13.805-19.332l21.733,3.017l-6.26,21.741l3.488,13.783l-4.492,13.787
		l1.187,13.792l8.286,13.788l-19.479,14.055L590.794,204.787z"/>
</g>
<g>
	<polygon fill="#000000" points="398.688,204.763 398.686,207.84 384.885,206.048 371.092,206.406 357.288,209.038 343.484,205.464 
		329.683,209.442 315.873,204.981 302.064,208.612 288.263,209.068 274.466,204.804 260.666,200.967 246.861,200.9 233.061,205.878 
		219.251,200.303 204.606,202.949 203.51,217.621 209.647,231.448 205.52,245.281 201.386,259.116 201.713,272.948 207.774,286.791 
		203.555,300.632 199.997,314.464 201.046,328.292 201.986,342.124 200.017,355.961 206.222,369.793 203.936,383.635 
		201.107,397.476 205.681,411.308 205.235,425.138 202.47,438.969 204.045,452.804 201.423,466.636 209.271,480.478 204.27,495.496 
		219.242,494.234 233.038,490.621 246.838,499.99 260.643,493.771 274.444,494.914 288.254,495.855 302.064,499.406 
		315.865,490.648 329.661,497.715 343.463,489.666 357.266,498.797 371.066,499.322 384.879,493.195 398.686,489.617 
		398.688,494.771 412.489,489.129 426.285,491.941 440.087,490.515 453.889,498.982 467.69,494.455 481.501,497.152 498.84,497.871 
		498.932,480.488 489.769,466.662 495.196,452.828 490.002,438.992 497.652,425.16 493.23,411.318 491.286,397.476 492.765,383.642 
		490.789,369.814 491.867,355.984 492.691,342.147 489.684,328.315 490.692,314.474 496.305,300.632 499.543,286.799 
		491.12,272.971 491.28,259.139 492.973,245.303 498.57,231.471 499.991,217.63 496.13,202.965 481.509,199.997 467.713,200.57 
		453.915,202.306 440.108,206.567 426.307,201.216 412.466,202.859 	"/>
</g>
</svg>
