<?xml version="1.0" encoding="utf-8"?>
<!-- Generator: Adobe Illustrator 16.0.0, SVG Export Plug-In . SVG Version: 6.00 Build 0)  -->
<!DOCTYPE svg PUBLIC "-//W3C//DTD SVG 1.0//EN" "http://www.w3.org/TR/2001/REC-SVG-20010904/DTD/svg10.dtd">
<svg version="1.0" id="Ebene_1" xmlns="http://www.w3.org/2000/svg" xmlns:xlink="http://www.w3.org/1999/xlink" x="0px" y="0px"
	 width="699.988px" height="699.988px" viewBox="0 0 699.988 699.988" enable-background="new 0 0 699.988 699.988"
	 xml:space="preserve">
<g>
	<path fill="#000000" d="M585.787,13.69l-5.551-11.316l-5.549,22.611l-5.553,9.239l-5.553,1.287l-5.549-33.635l-5.551,13.368
		l-5.551-12.296l-5.547,2.348l-5.551,11.396l-5.551-11.406l-5.551-5.285l-5.555,23.335l-5.553-18.989l-5.551,6.464l-5.555,27.176
		l-5.561-6.037l-5.551-26.138l-5.551,20.497l-5.549-20.346l-5.551,12.791l-5.553,18.584l-5.549-26.207l-5.551,12.615l-5.551,1.324
		l-5.547-19.773l-5.549-1.677l-5.553,35.414l-5.551-3.874l-5.555-3.226l-5.551-19.407l-5.551,4.517L408.15,0.279l-5.561,13.154
		l-5.559,15.61v0.782l-5.553,3.747l-5.549-5.949l-5.551-20.623l-5.551,1.546l-5.549,29.772l-5.553-22.177l-5.551,19.404
		l-5.545-22.87l-5.55,22.274l-5.55-33.521l-5.552,34.881l-5.552-10.514l-5.552-12.617l-5.55,3.728l-5.553-14.375l-5.558,10.491
		l-5.559,6.322l-5.552-0.075l-5.548,13.599l-5.55-29.625l-5.551,15.975l-5.552,12.74l-5.551-4.728l-5.549-8.186l-5.545-10.594
		l-5.549,26.869l-5.554-32.631l-5.55,11.439l-5.552,15.714L230.5,11.098l-5.551,13.23L219.395,37.6l-5.559-23.239l-5.56-0.709
		l-5.55,21.206l-5.548-3.368l-5.55-14.181l-5.553-15.841L180.524,5.6l-5.551,30.517l-5.549-23.074l-5.545,2.072l-5.552,3.361
		l-5.552-7.168l-5.55,6.587l-5.552,20.741l-5.555-11.267L130.57,8.443l-5.554,13.532l-5.561-10.37l-5.558,7.361l-5.551,1.38
		l-5.549,3.302l-5.55-20.663l-5.548,1.188l-5.551,1.823l-5.55-1.745L75.05,22.554L69.502,4.967l-5.55,7.014l-5.552,5.874
		l-5.549,18.432L47.299,23.06l-5.555-7.867l-5.549,20.213l-5.554-17.021L25.08,36.206L8.399,8.153l27.104,16.688l-23.854,5.553
		l-2.894,5.553L38.42,41.5l-19.021,5.555l8.124,5.553L0.578,58.159l20.438,5.549L9.506,69.262l28.89,5.554L7.306,80.369
		l12.822,5.555l2.936,5.558L9.176,97.032L9.3,102.59l-1.611,5.563l-6.831,5.562l21.56,5.555l-1.473,5.551l-2.771,5.553
		l-15.012,5.554l7.903,5.555l14.999,5.553l-8.183,5.553l-2.792,5.549l7.224,5.554l1.729,5.554l-3.179,5.554l10.904,5.557
		l-19.295,5.556l21.708,5.553l-17.575,5.56l-13.347,5.562l13.53,5.563L5.01,213.697l3.042,5.551l24.007,5.553l-20.67,5.556
		l19.992,5.553l-28.737,5.546l3.846,5.553l27.207,5.551l-0.926,5.552l-15.755,5.554l-2.424,5.554l22.484,5.557L9.556,280.33
		l7.834,5.553l-9.349,5.56l-1.594,5.562l24.273,5.563l-15.803,5.553l6.109,5.552l-12.111,5.555l29.609,5.554L0,330.333l8.425,5.554
		l23.5,5.555l-20.178,5.549l2.509,5.552l-0.856,5.554l23.105,5.557l-18.767,5.555l-13.308,5.556l1.928,5.556l32.146,5.558
		l-17.752,5.563l13.814,5.562l-8.505,5.553l-15.26,5.554l-2.883,5.554l16.908,5.554L4.484,424.77l9.764,5.554l8.396,5.553
		l6.836,5.55l-4.288,5.553l7.928,5.555l-0.78,5.554l-8.12,5.557L0.254,469.2l1.854,5.553l11.308,5.56l3.587,5.554l14.024,5.563
		l-14.823,5.554l5.604,5.552l-14.031,5.554l-6.218,5.555l19.192,5.554l16.292,5.554l-20.586,5.554l10.455,5.549l-22.777,5.551
		l18.279,5.555l-0.688,5.556l5.779,5.555l2.523,5.557l-1.188,5.554l1.215,5.559l-17.917,5.562l9.141,5.563l10.197,5.553l6.761,5.552
		l-23.238,5.555l5.343,5.555l-19.435,5.548l28.512,5.555l-29.188,5.553l5.3,5.55l11.363,5.552L3.94,641.388l23.791,5.555
		l-0.047,5.555l-13.29,5.557l11.972,5.553l-23.999,5.536l21.729,5.562L6.388,693.374l18.684-5.901l5.549-1.732l5.551-20.604
		l5.552,16.708l5.551-11.77l5.551-5.915l5.548,17.25l5.548,8.007l5.55,5.166l5.551-20.639l5.551-9.202l5.552,6.894l5.555,21.161
		l5.55-29.969l5.554,7.313l5.56,18.419l5.559-23.204l5.549,8.442l5.55,1.903l5.551,6.53l5.551,7.778l5.55,9.468l5.551-32.845
		l5.55,5.536l5.546,14.753l5.55-24.983l5.551,4.55l5.551,7.581l5.554-0.646l5.552,6.827l5.55,4.435l5.554,7.836l5.56-18.377
		l5.559,23.382l5.55-9.415l5.55-5.803l5.55-20.222l5.55-1.132l5.551,23.861l5.552-14.336l5.549,17.477l5.546-4.476l5.55-12.796
		l5.551,25.145l5.552-34.643l5.553,14.074l5.552,10.429l5.55-7.124l5.555,14.987l5.559,4.342l5.562-6.887l5.55-20.892l5.548,5.403
		l5.55,21.224l5.552-24.521l5.551,11.391l5.551-13.08l5.548-4.509l5.547,13.859l5.55-5.933l5.553,4.397l5.551,16.771l5.551,1.948
		l5.553-35.808l5.553,17.167l5.555,3.357l5.561-2.005l5.559,14.28l0.002,0.225l5.549-26.584l5.549,31.813l5.553-13.855l5.553-6.338
		l5.549-9.46l5.551-8.62l5.551,31.352l5.547-13.664l5.549,6.776l5.553-9.351l5.551,0.742l5.553-4.314l5.553,24.452l5.551-5.963
		l5.555-11.816l5.563-8.328l5.559,6.714l5.551,11.338l5.549-9.1l5.551-12.878l5.553-2.144l5.549-4.518l5.553,20.041l5.549-17.861
		l5.547,2.279l5.551,3.381l5.551,11.994l5.553,5.465l5.553,3.773l5.553-9.802l5.551,1.547l5.555-19.792l5.561,31.012l5.561-4.411
		l5.551-13.279l5.549,13.705l5.551-23.318l5.553,12.968l5.551-13.955l5.551,6.053l5.549,27.975l5.547-16.979l5.549-4.267
		l5.553,10.021l5.553-11.897l5.553-4.268l5.551-9.436l5.553,38.5l5.555-27.366l5.561-7.954l17.773,27.822l3.732-17.782
		l-32.871-5.553l1.199-5.554l-1.064-5.555l35.475-5.554l-23.752-5.554l6.607-5.553l18.203-5.55l-19.365-5.553l-3.994-5.555
		l0.387-5.555l-15.301-5.555l13.953-5.557l-7.549-5.553l-6.377-5.559l29.098-5.563l3.896-5.563l-8.982-5.554l-12.746-5.552
		l-6.475-5.555l30.744-5.555l-16.033-5.554l-12.109-5.555l-3.982-5.554l-4.547-5.549l37.695-5.552l-5.789-5.556l7.52-5.555
		l-15.188-5.555l-9.863-5.556l-1.49-5.555l12.963-5.558l9.811-5.563l-7.586-5.563l8.436-5.553l-12.041-5.554l-5.344-5.554
		l16.02-5.554l-25.207-5.554l-6.445-5.555l21.412-5.553l-23.783-5.549l27.051-5.553l-22.438-5.556l2.354-5.554l20.596-5.555
		l-9.678-5.558l-18.52-5.554l14.475-5.56l16.072-5.562l-26.541-5.563l24.242-5.553l-7.715-5.552l4.152-5.555l10.57-5.556
		l-34.777-5.553l13.359-5.554l23.164-5.555l-9.566-5.549l5.773-5.552l-8.236-5.555l-3.484-5.556l-2.385-5.555l-9.791-5.556
		l13.789-5.555l-10.674-5.558l-0.439-5.563l-10.221-5.562l12.166-5.553l-14.23-5.553l34.699-5.553l-26.447-5.554l13.203-5.553
		l5.02-5.555l-5.682-5.553l-20.912-5.549l9.896-5.552L696,246.991l-5.289-5.554l-25.186-5.555l21.309-5.558l-20.145-5.553
		l-3.91-5.558l33.777-5.563l-13.855-5.562l4.766-5.555l-17.998-5.551l10.746-5.553l11.109-5.554l-22.15-5.555l29.992-5.553
		l-23.15-5.553l-12.49-5.549l33.172-5.554l0.865-5.554l-30.842-5.554l8.771-5.556l17.24-5.557l1.576-5.553l-7.797-5.559l7.479-5.563
		l-27.246-5.563l0.773-5.554l18.504-5.551l4.994-5.553l-30.479-5.555l29.572-5.554l-26.641-5.553l26.701-5.554l-18.436-5.549
		l20.768-5.553l6.189-5.554l-34.432-5.555l33.453-5.556l-34.354-5.556l2.486-5.554l33.428-5.559l-33.523-5.562l1.9,6.963
		l6.998-21.618l-5.549,19.313l-5.551,0.46l-5.553-4.792l-5.549-16.366l-5.574,15.548l-5.549-7.659l-5.547,14.939l-5.549-18.781
		l-5.555,2.104l-5.551-1.68l-5.553-6.773L608.017,38.3l-5.551-24.017l-5.555-9.702l-12.43,28.331L585.787,13.69z M580.189,208.138
		l-11.314,5.553l22.609,5.551l9.24,5.553l1.285,5.556l-33.631,5.553l13.367,5.553l-12.295,5.553l2.348,5.551l11.395,5.552
		l-11.404,5.554l-5.287,5.554l23.336,5.557l-18.99,5.556l6.465,5.553l27.176,5.56l-6.037,5.562l-26.139,5.563l20.496,5.553
		l-20.346,5.552l12.791,5.555l18.584,5.554l-26.207,5.553l12.615,5.554l1.324,5.555l-19.771,5.549l-1.678,5.552l35.412,5.554
		l-3.875,5.557l-3.227,5.555l-19.404,5.556l4.518,5.556l-16.766,5.558l13.152,5.563l15.609,5.562l0.781,5.553l3.748,5.554
		l-5.949,5.554l-20.621,5.554l1.545,5.556l29.771,5.554l-22.174,5.553l19.402,5.55l-22.869,5.553l22.273,5.555l-33.52,5.554
		l34.881,5.557l-10.514,5.556l-12.617,5.553l3.729,5.56l-14.377,5.562l10.492,5.563l6.32,5.553l-0.074,5.552l13.598,5.555
		l-29.623,5.555l15.973,5.553l12.74,5.555l-4.729,5.553l-8.184,5.55l-10.594,5.552l26.867,5.555l-32.631,5.556l11.439,5.555
		l15.713,5.558l-18.746,5.554l13.232,5.558l13.27,5.563l-21.799,2.082l-2.063-2.154l-5.551,21.205l-5.551-3.367l-5.553-14.183
		l-5.549-15.839l-5.551,4.131l-5.551,30.518l-5.547-23.073l-5.551,2.072l-5.551,3.359l-5.553-7.167l-5.553,6.586l-5.549,20.723
		l-5.551-11.265l-5.555-18.928l-5.561,13.531l-5.559-10.368l-5.553,7.36l-5.549,1.38l-5.551,3.304l-5.551-20.666l-5.551,1.188
		l-5.551,1.822l-5.551-1.745L447,589.117l-5.549-17.586l-5.551,7.014l-5.553,5.873l-5.553,18.435l-5.553-13.229l-5.551-7.864
		l-5.557,20.213l-5.559-17.021l-5.561,17.821v-32.657l-5.551,31.723l-5.549-23.855l-5.551-2.895l-5.553,29.666l-5.551-19.021
		l-5.549,8.124l-5.551-26.944l-5.547,20.438l-5.549-11.512l-5.554,28.892l-5.55-31.092l-5.552,12.823l-5.552,2.937l-5.552-13.889
		l-5.554,0.124l-5.546-1.626l-5.56-6.831l-5.551,21.562l-5.548-1.474l-5.55-2.771l-5.552-15.013l-5.551,7.903l-5.551,14.997
		l-5.549-8.184l-5.546-2.793l-5.55,7.226l-5.553,1.729l-5.55-3.18l-5.552,10.901l-5.554-19.296l-5.55,21.709l-5.554-17.574
		l-5.559-13.349l-5.56,13.531l-5.55-11.776l-5.548,3.042l-5.55,24.008l-5.553-20.671l-5.55,19.993l-5.551-28.74l-5.549,3.85
		l-5.545,27.208l-5.552-0.928l-5.552-15.758l-5.55-2.423l-5.552,22.485l-5.555-27.521l-5.549,7.835l-5.554-9.349l-5.56-1.594
		l-13.459,20.998l12.519-13.477l-6.109-5.552l12.111-5.554l-29.609-5.556l38.525-5.553l-8.425-5.555l-23.499-5.553l20.177-5.551
		l-2.508-5.552l0.855-5.555l-23.104-5.556l18.766-5.555l13.307-5.556l-1.928-5.554l-32.145-5.559l17.751-5.562l-13.814-5.563
		l8.504-5.553l15.261-5.552l2.883-5.556l-16.908-5.554l20.341-5.553l-9.765-5.556l-8.396-5.553l-6.836-5.549l4.288-5.552
		l-7.927-5.557l0.781-5.554l8.118-5.555l23.967-5.559l-1.854-5.553l-11.309-5.559l-3.583-5.563l-14.025-5.563l14.823-5.554
		l-5.604-5.552l14.031-5.554l6.218-5.557l-19.192-5.553l-16.292-5.554l20.586-5.554l-10.455-5.55l22.778-5.552l-18.281-5.555
		l0.688-5.555l-5.778-5.556l-2.524-5.556l1.189-5.554l-1.217-5.559l17.918-5.562l-9.14-5.563l-10.197-5.553l-6.763-5.551
		l23.238-5.555l-5.341-5.554l19.434-5.553l-28.512-5.554l29.188-5.554l-5.3-5.549l-11.363-5.552l12.951-5.555l-23.792-5.555
		l0.047-5.555l13.29-5.557l-11.972-5.554l23.997-5.558l-21.729-5.563l23.129-5.562l-11.352-5.554l-1.731-5.552l-20.604-5.553
		l16.708-5.554l-11.77-5.554l-5.913-5.554l17.25-5.553l8.005-5.549l5.166-5.553l-20.637-5.555l-9.2-5.554l6.89-5.556l21.161-5.557
		l-29.965-5.553l7.31-5.559l18.419-5.563l-18.846-16.095l16.103,4.063l5.549,1.904l5.552,6.532l5.551,7.776l5.55,9.467l5.551-32.843
		l5.55,5.535l5.546,14.753l5.55-24.983l5.551,4.55l5.551,7.581l5.554-0.647l5.552,6.828l5.55,4.435l5.554,7.836l5.56-18.377
		l5.559,23.382l5.549-9.415l5.551-5.803l5.55-20.223l5.55-1.131l5.551,23.864l5.553-14.336l5.548,17.475l5.546-4.473l5.55-12.797
		l5.551,25.143l5.553-34.64l5.552,14.072l5.552,10.43l5.55-7.124l5.556,14.985l5.558,4.342l5.561-6.888l5.55-20.89l5.548,5.404
		l5.55,21.223l5.551-24.521l5.552,11.391l5.551-13.081l5.548-4.508l5.547,13.859l5.548-5.931l5.555,4.398l5.551,16.771l5.551,1.947
		l5.553-35.808l5.553,17.167l5.555,3.358l5.559-2.005l5.561,14.279l0.002,0.227l5.549-26.584l5.549,31.813l5.551-13.854l5.555-6.338
		l5.549-9.46l5.551-8.62l5.549,31.349l5.549-13.663l5.549,6.779l5.553-9.352l5.551,0.741l5.553-4.314l5.553,24.453l5.551-5.962
		l5.555-11.815l5.563-8.331l5.559,6.712l5.549,11.338l5.551-9.099l5.551-12.877l5.551-2.144l5.551-4.518l5.553,20.042l5.549-17.864
		l5.547,2.28l5.551,3.38l5.551,11.997l5.553,5.463l5.553,3.774l5.553-9.801l5.551,1.547l5.557-19.792l5.559,31.01l-0.029-6.724
		l10.961-0.041l-13.703,5.551l23.316,5.554l-12.967,5.554l13.955,5.554l-6.055,5.553l-27.973,5.554l16.98,5.549l4.266,5.553
		l-10.021,5.554l11.896,5.555l4.268,5.556l9.436,5.556l-38.498,5.554l27.365,5.559l6.289,12.571L580.189,208.138z"/>
</g>
<g>
	<path fill="#000000" d="M396.529,223.107v-1.6c-3.054,0-3.054,1.878-6.106,1.878c-3.057,0-3.057-17.019-6.108-17.019
		c-3.053,0-3.055-0.688-6.108-0.688c-3.053,0-3.054,15.601-6.106,15.601s-3.055-8.872-6.108-8.872
		c-3.051,0-3.051,14.611-6.104,14.611c-3.055,0-3.055-12.409-6.106-12.409c-3.054,0-3.054,12.717-6.106,12.717
		c-3.057,0-3.057-23.019-6.11-23.019c-3.055,0-3.055,1.591-6.109,1.591c-3.054,0-3.055,1.363-6.109,1.363
		s-3.055,11.168-6.107,11.168c-3.057,0-3.057-6.593-6.112-6.593c-3.06,0-3.06-9.585-6.116-9.585c-3.06,0-3.06,16.546-6.116,16.546
		c-3.054,0-3.054-4.247-6.109-4.247c-3.054,0-3.054,0.016-6.107,0.016c-3.055,0-3.055,7.776-6.106,7.776
		c-3.054,0-3.055-0.997-6.107-0.997c-3.054,0-3.055-9.674-6.108-9.674c-3.051,0-3.051,2.221-6.104,2.221s-3.054,1.711-6.105,1.711
		c-3.055,0-3.055,10.875-6.108,10.875s-3.055-26.481-6.108-26.481c-3.055,0-3.056,22.625-6.108,22.625
		c-3.055,0-3.055-0.993-6.11-0.993c-3.054,0-3.054,1.448-6.105,1.448c-3.058,0-3.058-11.672-6.113-11.672
		c-3.058,0-3.058-11.133-6.117-11.133c-3.058,0-7.633,7.476-9.806,9.626c-2.153,2.131,6.016,6.754,6.016,9.783
		c0,3.027,2.422,3.027,2.422,6.057c0,3.03-11.995,3.029-11.995,6.057c0,3.028-6.013,3.029-6.013,6.059s4.212,3.029,4.212,6.058
		c0,3.026,10.449,3.026,10.449,6.051c0,3.027-9.263,3.027-9.263,6.057s3.999,3.028,3.999,6.057c0,3.029-7.23,3.029-7.23,6.059
		c0,3.027,17.605,3.027,17.605,6.058s-9.738,3.03-9.738,6.06c0,3.028,1.353,3.028,1.353,6.056c0,3.031,7.575,3.031,7.575,6.062
		c0,3.033-16.558,3.033-16.558,6.065c0,3.033,16.389,3.033,16.389,6.064c0,3.029,7.797,3.029,7.797,6.059
		c0,3.028-4.168,3.028-4.168,6.057c0,3.029-2.531,3.029-2.531,6.058c0,3.026-19.813,3.026-19.813,6.057s1.96,3.029,1.96,6.058
		c0,3.026,21.312,3.026,21.312,6.052c0,3.026-4.313,3.026-4.313,6.056s-8.186,3.029-8.186,6.057c0,3.029,9.999,3.029,9.999,6.061
		c0,3.025,4.685,3.025,4.685,6.059c0,3.029-22.993,3.029-22.993,6.061c0,3.025,7.098,3.025,7.098,6.057s0.108,3.031,0.108,6.063
		s0.668,3.031,0.668,6.064s1.187,3.033,1.187,6.066c0,3.025-4.554,3.025-4.554,6.057c0,3.029,17.41,3.029,17.41,6.059
		c0,3.025-22.55,3.025-22.55,6.057c0,3.029,19.874,3.029,19.874,6.059s-20.466,3.027-20.466,6.059c0,3.023,5.869,3.023,5.869,6.051
		c0,3.029,16.072,3.027,16.072,6.055c0,3.029-22.763,3.029-22.763,6.063c0,3.027,12.007,3.027,12.007,6.055
		c0,3.029,1.164,3.029,1.164,6.063c0,3.027,5.245,3.027,5.245,6.059c0,3.029-15.746,3.029-15.746,6.057
		c0,3.031,17.133,3.031,17.133,6.063c0,3.033,3.736,3.033,3.736,6.066c0,3.031-7.692-1.35-5.541,0.789
		c2.167,2.15-2.187,11.971,0.867,11.971c3.055,0,3.055-2.514,6.108-2.514c3.053,0,3.054,4.043,6.107,4.043
		c3.053,0,3.055-21.354,6.108-21.354s3.054,10.16,6.106,10.16c3.052,0,3.052,8.633,6.104,8.633c3.054,0,3.054-17.498,6.106-17.498
		c3.055,0,3.055,17.576,6.108,17.576s3.054-1.547,6.108-1.547c3.054,0,3.055-15.563,6.107-15.563c3.057,0,3.057,6.912,6.111,6.912
		c3.053,0,3.053,8.459,6.105,8.459c3.057,0,3.057,8.773,6.112,8.773c3.058,0,3.058-14.852,6.116-14.852s3.06,3.588,6.118,3.588
		c3.054,0,3.054-5.24,6.105-5.24c3.055,0,3.055-0.148,6.109-0.148c3.054,0,3.054,17.6,6.107,17.6s3.055-12.188,6.106-12.188
		c3.055,0,3.055-8.105,6.108-8.105c3.053,0,3.053,2.533,6.104,2.533c3.054,0,3.054-9.623,6.106-9.623c3.055,0,3.055,9.99,6.108,9.99
		c3.055,0,3.055,16.363,6.109,16.363s3.056-6.594,6.108-6.594c3.057,0,3.057,6.85,6.109,6.85s3.054-21.764,6.106-21.764
		c3.057,0,3.057,14.645,6.111,14.645c3.062,0,3.062-2.859,6.118-2.859c3.058,0,3.059-3.971,6.116-3.971v-6.781
		c3.054,0,3.054,11.338,6.106,11.338c3.057,0,3.057,8.65,6.109,8.65c3.052,0,3.054-9.43,6.106-9.43
		c3.054,0,3.055-10.926,6.107-10.926c3.054,0,3.055-1.059,6.107-1.059s3.053,13.418,6.104,13.418c3.055,0,3.055-3.123,6.107-3.123
		s3.054,3.402,6.105,3.402c3.053,0,3.055-1.188,6.109-1.188s3.056-0.582,6.108-0.582c3.057,0,3.057-3.096,6.109-3.096
		c3.054,0,3.054,7.602,6.106,7.602c3.057,0,3.057-19.416,6.112-19.416c3.06,0,3.06,19.074,6.116,19.074
		c3.058,0,0.926-7.789,3.1-9.938c2.15-2.131,14.489,0.02,14.489-3.008c0-3.029-12.887-3.029-12.887-6.063
		c0-3.025,2.354-3.025,2.354-6.057c0-3.029,1.227-3.029,1.227-6.057c0-3.029,8.23-3.029,8.23-6.059
		c0-3.025-12.641-3.025-12.641-6.053c0-3.029,11.566-3.027,11.566-6.055c0-3.029-11.771-3.029-11.771-6.061
		c0-3.029,3.142-3.027,3.142-6.057c0-3.031-3.427-3.029-3.427-6.061c0-3.029,6.766-3.027,6.766-6.061
		c0-3.027,7.326-3.027,7.326-6.057c0-3.031-23.035-3.031-23.035-6.063c0-3.033,13.771-3.033,13.771-6.066
		c0-3.031,4.788-3.031,4.788-6.063c0-3.027-17.438-3.027-17.438-6.059c0-3.029,22.394-3.027,22.394-6.059
		c0-3.029-13.953-3.029-13.953-6.057c0-3.029,3.145-3.029,3.145-6.059s4.884-3.027,4.884-6.057c0-3.027,4.663-3.027,4.663-6.055
		c0-3.025-18.139-3.025-18.139-6.055c0-3.031,2.024-3.031,2.024-6.058c0-3.029,4.646-3.029,4.646-6.06
		c0-3.027,12.026-3.027,12.026-6.057s-14.338-3.03-14.338-6.062c0-3.026-9.517-3.026-9.517-6.057c0-3.031,23.171-3.031,23.171-6.061
		c0-3.033-18.437-3.033-18.437-6.066s18.343-3.033,18.343-6.066c0-3.027-17.375-3.027-17.375-6.056s0.823-3.029,0.823-6.058
		c0-3.029,16.035-3.028,16.035-6.059c0-3.028-4.139-3.028-4.139-6.055c0-3.029-2.671-3.029-2.671-6.06
		c0-3.024,6.04-3.024,6.04-6.052s-7.041-3.027-7.041-6.054c0-3.029,3.082-3.029,3.082-6.058s-15.091-3.028-15.091-6.059
		s15.234-3.029,15.234-6.057c0-3.03-18.452-3.03-18.452-6.062c0-3.026,10.182-3.026,10.182-6.055c0-3.031,6.587-3.031,6.587-6.063
		c0-3.031,3.087-3.031,3.087-6.063s-9.503,1.098-11.653-1.04c-2.168-2.152,1.938-9.105-1.116-9.105s-3.055,17.121-6.106,17.121
		c-3.055,0-3.056-2.946-6.108-2.946c-3.054,0-3.055-10.146-6.106-10.146c-3.056,0-3.056,3.238-6.107,3.238s-3.052-4.082-6.104-4.082
		s-3.054,10.346-6.104,10.346c-3.055,0-3.055-1.658-6.107-1.658c-3.054,0-3.055,1.155-6.108,1.155s-3.056,3.375-6.109,3.375
		c-3.056,0-3.056-14.246-6.109-14.246s-3.054,9.437-6.106,9.437c-3.056,0-3.056-3.613-6.111-3.613
		c-3.061,0-10.783-12.667-12.91-10.47C391.784,211.26,399.589,223.107,396.529,223.107z"/>
</g>
</svg>
