<?xml version="1.0" encoding="utf-8"?>
<!-- Generator: Adobe Illustrator 16.0.0, SVG Export Plug-In . SVG Version: 6.00 Build 0)  -->
<!DOCTYPE svg PUBLIC "-//W3C//DTD SVG 1.1//EN" "http://www.w3.org/Graphics/SVG/1.1/DTD/svg11.dtd">
<svg version="1.1" id="Ebene_1" xmlns="http://www.w3.org/2000/svg" xmlns:xlink="http://www.w3.org/1999/xlink" x="0px" y="0px"
	 width="699.988px" height="699.988px" viewBox="0 0 699.988 699.988" enable-background="new 0 0 699.988 699.988"
	 xml:space="preserve">
<g>
	<path fill="#000000" d="M488.367,0H211.621C94.746,0,0,94.746,0,211.621v276.745c0,116.876,94.746,211.622,211.621,211.622h276.746
		c116.875,0,211.621-94.746,211.621-211.622V211.621C699.988,94.746,605.242,0,488.367,0z M599.99,448.832
		c0,83.482-67.676,151.158-151.158,151.158H251.156c-83.482,0-151.158-67.676-151.158-151.158V251.156
		c0-83.482,67.676-151.158,151.158-151.158h197.676c83.482,0,151.158,67.676,151.158,151.158V448.832z"/>
</g>
<g>
	<path fill="#000000" d="M499.991,409.296c0,50.091-40.604,90.694-90.693,90.694H290.691c-50.089,0-90.694-40.604-90.694-90.694
		V290.692c0-50.09,40.605-90.694,90.694-90.694h118.605c50.089,0,90.693,40.604,90.693,90.694L499.991,409.296L499.991,409.296z"/>
</g>
</svg>
