<?xml version="1.0" encoding="utf-8"?>
<!-- Generator: Adobe Illustrator 23.0.4, SVG Export Plug-In . SVG Version: 6.00 Build 0)  -->
<svg version="1.1" id="Ebene_1" xmlns="http://www.w3.org/2000/svg" xmlns:xlink="http://www.w3.org/1999/xlink" x="0px" y="0px"
	 viewBox="0 0 700 700" style="enable-background:new 0 0 700 700;" xml:space="preserve">
<g>
	<path fill="#000000" d="M21.2-0.1C9.5-0.1-0.1,9.5-0.1,21.2v78.8v100v100v100v100v100v78.8c0,11.7,9.5,21.3,21.3,21.3h657.6
		c11.7,0,21.3-9.5,21.3-21.3V600V500V400V300V200v-100V21.2c0-11.7-9.5-21.3-21.3-21.3H21.2z M600,200v100v100v100v87.8
		c0,6.8-5.5,12.2-12.2,12.2H112.2c-6.8,0-12.2-5.5-12.2-12.2V500V400V300V200v-87.8c0-6.8,5.5-12.2,12.2-12.2h475.6
		c6.8,0,12.2,5.5,12.2,12.2V200z"/>
</g>
<g>
	<path fill="#000000" d="M500,400V300v-78.8c0-11.7-9.5-21.3-21.3-21.3H221.2c-11.7,0-21.3,9.5-21.3,21.3V300v100v78.8
			c0,11.7,9.5,21.3,21.3,21.3h257.5c11.7,0,21.3-9.5,21.3-21.3V400z"/>
</g>
</svg>
