<svg xmlns="http://www.w3.org/2000/svg" viewBox="0 0 15 15" fill="currentColor">
  <title>Pattern Connect Horizontal</title>
  <path d="M4.83,2a.77.77,0,1,0-.77-.77A.77.77,0,0,0,4.83,2Z"/>
  <path d="M.5,1.27A.77.77,0,0,0,1.27,2h0A.77.77,0,1,0,.5,1.27Z"/>
  <path d="M6.61,4.06a.77.77,0,1,0,0,1.54h0a.77.77,0,1,0,0-1.54Z"/>
  <path d="M1.27,3.82H8.39a.77.77,0,0,0,0-1.54H1.27a.77.77,0,1,0,0,1.54Z"/>
  <path d="M3.05,13a.77.77,0,1,0,.77.77A.77.77,0,0,0,3.05,13Z"/>
  <path d="M4.83,5.84a.77.77,0,1,0,.77.77A.78.78,0,0,0,4.83,5.84Z"/>
  <path d="M8.39,11.18a.77.77,0,1,0,.77.77A.78.78,0,0,0,8.39,11.18Z"/>
  <path d="M13.73,13a.77.77,0,1,0,.77.77A.78.78,0,0,0,13.73,13Z"/>
  <path d="M6.61,13a.77.77,0,0,0,0,1.54.77.77,0,0,0,0-1.54Z"/>
  <path d="M4.86,11.18H4.8a.76.76,0,0,0-.74.76.77.77,0,1,0,1.54,0A.76.76,0,0,0,4.86,11.18Z"/>
  <path d="M9.16,6.61a.77.77,0,1,0-.77.77A.77.77,0,0,0,9.16,6.61Z"/>
  <path d="M1.27,12.72A.77.77,0,1,0,.5,12,.77.77,0,0,0,1.27,12.72Z"/>
  <path d="M12,12.72h1.78a.77.77,0,0,0,0-1.54H12a.77.77,0,0,0,0,1.54Z"/>
  <path d="M13.73,2.28H12a.77.77,0,1,0,0,1.54h1.78a.77.77,0,0,0,0-1.54Z"/>
  <path d="M13.73,5.84a.77.77,0,1,0,.77.77A.78.78,0,0,0,13.73,5.84Z"/>
  <path d="M13.73,2a.78.78,0,0,0,.77-.77.77.77,0,1,0-1.54,0A.78.78,0,0,0,13.73,2Z"/>
  <path d="M12,5.6a.77.77,0,1,0-.77-.77A.77.77,0,0,0,12,5.6Z"/>
  <path d="M4.83,9.4a.78.78,0,0,0-.77.77.76.76,0,0,0,.74.76h.06a.76.76,0,0,0,.74-.76A.77.77,0,0,0,4.83,9.4Z"/>
  <path d="M1.27,9.16H4.83a.77.77,0,1,0,0-1.54H1.27a.77.77,0,1,0,0,1.54Z"/>
  <path d="M1.27,5.6h0a.77.77,0,1,0,0-1.54.77.77,0,0,0,0,1.54Z"/>
  <path d="M8.39,9.16H12a.77.77,0,1,0,0-1.54H8.39a.77.77,0,1,0,0,1.54Z"/>
</svg>
