<svg xmlns="http://www.w3.org/2000/svg" viewBox="0 0 15 15" fill="currentColor">
  <title>Pattern Default</title>
  <rect x="5.75" y="12.75" width="1.75" height="1.75"/>
  <rect x="12.75" y="12.75" width="1.75" height="1.75"/>
  <rect x="2.25" y="12.75" width="1.75" height="1.75"/>
  <rect x="12.75" y="11" width="1.75" height="1.75"/>
  <rect x="12.75" y="2.25" width="1.75" height="1.75"/>
  <rect x="12.75" y="5.75" width="1.75" height="1.75"/>
  <rect x="12.75" y="0.5" width="1.75" height="1.75"/>
  <rect x="4" y="9.25" width="1.75" height="1.75"/>
  <rect x="4" y="10.99" width="1.75" height="1.75"/>
  <rect x="2.25" y="7.5" width="1.75" height="1.75"/>
  <rect x="9.25" y="7.5" width="1.75" height="1.75"/>
  <rect x="5.75" y="4" width="1.75" height="1.75"/>
  <rect x="5.75" y="2.25" width="1.75" height="1.75"/>
  <rect x="4" y="2.25" width="1.75" height="1.75"/>
  <rect x="4" y="0.5" width="1.75" height="1.75"/>
  <rect x="2.25" y="2.25" width="1.75" height="1.75"/>
  <rect x="4" y="5.75" width="1.75" height="1.75"/>
  <rect x="7.5" y="2.25" width="1.75" height="1.75"/>
  <rect x="4" y="7.5" width="1.75" height="1.75"/>
  <rect x="7.5" y="5.75" width="1.75" height="1.75"/>
  <rect x="7.5" y="7.5" width="1.75" height="1.75"/>
  <rect x="11" y="11" width="1.75" height="1.75"/>
  <rect x="7.5" y="11" width="1.75" height="1.75"/>
  <rect x="11" y="2.25" width="1.75" height="1.75"/>
  <rect x="11" y="4" width="1.75" height="1.75"/>
  <rect x="0.5" y="2.25" width="1.75" height="1.75" />
  <rect x="0.5" y="4" width="1.75" height="1.75"/>
  <rect x="0.5" y="0.5" width="1.75" height="1.75"/>
  <rect x="11" y="7.5" width="1.75" height="1.75"/>
  <rect x="0.5" y="11" width="1.75" height="1.75"/>
  <rect x="0.5" y="7.5" width="1.75" height="1.75"/>
</svg>
