<svg xmlns="http://www.w3.org/2000/svg" viewBox="0 0 15 15" fill="currentColor">
  <title>Pattern Dots</title>
  <path d="M4.83,5.83a.78.78,0,1,0,.78.78A.78.78,0,0,0,4.83,5.83Z"/>
  <path d="M1.28,9.17a.78.78,0,0,0,.78-.78h0a.78.78,0,1,0-.78.78Z"/>
  <path d="M3.06,9.17a.78.78,0,0,0,0-1.56.78.78,0,0,0-.78.78h0A.78.78,0,0,0,3.06,9.17Z"/>
  <path d="M4.83,7.61a.78.78,0,1,0,.78.78A.78.78,0,0,0,4.83,7.61Z"/>
  <path d="M1.28,5.61a.77.77,0,0,0,.77-.78.76.76,0,0,0-.77-.77.77.77,0,0,0-.78.77A.78.78,0,0,0,1.28,5.61Z"/>
  <path d="M1.28.5a.78.78,0,0,0,0,1.56h0A.78.78,0,0,0,1.28.5Z"/>
  <path d="M3.06,2.28a.78.78,0,1,0,0,1.55.78.78,0,0,0,0-1.55Z"/>
  <path d="M5.61,10.17a.78.78,0,1,0-1.55,0,.77.77,0,0,0,.75.77h.05A.77.77,0,0,0,5.61,10.17Z"/>
  <path d="M4.83.5a.78.78,0,1,0,.78.78A.78.78,0,0,0,4.83.5Z"/>
  <path d="M4.83,3.83a.78.78,0,1,0-.77-.77A.78.78,0,0,0,4.83,3.83Z"/>
  <path d="M3.06,14.5a.78.78,0,1,0-.78-.78A.78.78,0,0,0,3.06,14.5Z"/>
  <path d="M6.61,5.61a.78.78,0,0,0,.78-.78.78.78,0,0,0-1.56,0A.78.78,0,0,0,6.61,5.61Z"/>
  <path d="M8.39,5.83a.78.78,0,1,0,.78.78A.78.78,0,0,0,8.39,5.83Z"/>
  <path d="M6.61,2.28a.78.78,0,1,0,.78.78A.78.78,0,0,0,6.61,2.28Z"/>
  <path d="M8.39,2.28a.78.78,0,1,0,.78.78A.78.78,0,0,0,8.39,2.28Z"/>
  <path d="M1.28,3.83a.78.78,0,0,0,0-1.55h0a.78.78,0,1,0,0,1.55Z"/>
  <path d="M11.94,5.61a.78.78,0,0,0,.78-.78.78.78,0,1,0-.78.78Z"/>
  <path d="M11.94,9.17a.78.78,0,1,0-.77-.78A.78.78,0,0,0,11.94,9.17Z"/>
  <path d="M11.94,3.83a.78.78,0,1,0-.77-.77A.78.78,0,0,0,11.94,3.83Z"/>
  <path d="M13.72,5.83a.78.78,0,1,0,.78.78A.78.78,0,0,0,13.72,5.83Z"/>
  <path d="M13.72.5a.78.78,0,1,0,.78.78A.78.78,0,0,0,13.72.5Z"/>
  <path d="M13.72,2.28a.78.78,0,1,0,.78.78A.78.78,0,0,0,13.72,2.28Z"/>
  <path d="M11.94,11.17a.78.78,0,1,0,.78.77A.78.78,0,0,0,11.94,11.17Z"/>
  <path d="M1.28,12.72a.78.78,0,1,0-.78-.78A.78.78,0,0,0,1.28,12.72Z"/>
  <path d="M8.39,12.72a.78.78,0,1,0-.78-.78A.78.78,0,0,0,8.39,12.72Z"/>
  <path d="M13.72,11.17a.78.78,0,1,0,.78.77A.78.78,0,0,0,13.72,11.17Z"/>
  <path d="M4.83,12.71a.78.78,0,0,0,.78-.78.77.77,0,0,0-.75-.77H4.81a.78.78,0,0,0,0,1.55Z"/>
  <path d="M6.61,14.5a.78.78,0,1,0-.77-.78A.78.78,0,0,0,6.61,14.5Z"/>
  <path d="M13.72,14.5a.78.78,0,1,0-.78-.78A.78.78,0,0,0,13.72,14.5Z"/>
  <path d="M10.17,7.61a.78.78,0,1,0,.78.78A.78.78,0,0,0,10.17,7.61Z"/>
  <path d="M8.39,7.61a.78.78,0,1,0,.78.78A.78.78,0,0,0,8.39,7.61Z"/>
</svg>
