<svg xmlns="http://www.w3.org/2000/svg" viewBox="0 0 15 15" fill="currentColor">
  <title>Pattern Rounded 2</title>
  <rect x="5.75" y="12.75" width="1.75" height="1.75" rx="0.66"/>
  <rect x="2.25" y="12.75" width="1.75" height="1.75" rx="0.66"/>
  <rect x="12.75" y="5.75" width="1.75" height="1.75" rx="0.66"/>
  <path d="M12.75,1.16v.43a.67.67,0,0,1-.66.66h-.42a.67.67,0,0,0-.67.66V5.08a.67.67,0,0,0,.67.67h.42a.67.67,0,0,0,.66-.67V4.66A.67.67,0,0,1,13.41,4h.43a.67.67,0,0,0,.66-.67V1.16A.67.67,0,0,0,13.84.5h-.43A.67.67,0,0,0,12.75,1.16Z"/>
  <path d="M9.25,6.83V6.41a.67.67,0,0,0-.66-.66H8.17a.67.67,0,0,0-.67.66V8.58a.67.67,0,0,0,.67.67h3.92a.67.67,0,0,0,.66-.67V8.16a.67.67,0,0,0-.66-.66H9.92A.67.67,0,0,1,9.25,6.83Z"/>
  <path d="M4,6.83a.67.67,0,0,1-.66.67H1.17a.67.67,0,0,0-.67.66v.42a.67.67,0,0,0,.67.67H3.34A.67.67,0,0,1,4,9.91V11H4v1.07a.67.67,0,0,0,.67.67h.42a.67.67,0,0,0,.66-.67V11h0V6.41a.67.67,0,0,0-.66-.66H4.67A.67.67,0,0,0,4,6.41Z"/>
  <path d="M9.25,3.33V2.91a.67.67,0,0,0-.66-.66H6.42a.67.67,0,0,1-.67-.66V1.16A.67.67,0,0,0,5.09.5H4.67A.67.67,0,0,0,4,1.16v.43a.67.67,0,0,1-.66.66H2.91a.67.67,0,0,1-.66-.66V1.17A.67.67,0,0,0,1.59.5H1.16a.67.67,0,0,0-.66.67V2.25h0V5.08a.67.67,0,0,0,.66.67h.43a.67.67,0,0,0,.66-.67V4.66A.67.67,0,0,1,2.91,4H5.09a.67.67,0,0,1,.66.66v.42a.67.67,0,0,0,.67.67h.42a.67.67,0,0,0,.66-.67V4.66A.67.67,0,0,1,8.17,4h.42A.67.67,0,0,0,9.25,3.33Z"/>
  <path d="M11,11.66v.42a.67.67,0,0,0,.67.67h.42a.67.67,0,0,1,.66.66v.43a.67.67,0,0,0,.66.66h.43a.67.67,0,0,0,.66-.66V11.66a.67.67,0,0,0-.66-.66H11.67A.67.67,0,0,0,11,11.66Z"/>
  <rect x="7.5" y="11" width="1.75" height="1.75" rx="0.66"/>
  <rect x="0.5" y="11" width="1.75" height="1.75" rx="0.66"/>
</svg>
