<svg xmlns="http://www.w3.org/2000/svg" viewBox="0 0 15 15" fill="currentColor">
  <title>Pattern Rounded 1</title>
  <rect x="5.75" y="12.75" width="1.75" height="1.75" rx="0.85"/>
  <rect x="2.25" y="12.75" width="1.75" height="1.75" rx="0.85"/>
  <rect x="12.75" y="5.75" width="1.75" height="1.75" rx="0.85"/>
  <path d="M12.75,1.35v0a.85.85,0,0,1-.85.85h0A.85.85,0,0,0,11,3.1V4.89a.85.85,0,0,0,.86.86h0a.85.85,0,0,0,.85-.86v0A.85.85,0,0,1,13.6,4h.05a.85.85,0,0,0,.85-.85V1.35A.85.85,0,0,0,13.65.5H13.6A.85.85,0,0,0,12.75,1.35Z"/>
  <path d="M9.25,6.64v0a.85.85,0,0,0-.85-.85h0a.85.85,0,0,0-.86.85V8.39a.85.85,0,0,0,.86.86H11.9a.85.85,0,0,0,.85-.86v0a.85.85,0,0,0-.85-.85H10.11A.85.85,0,0,1,9.25,6.64Z"/>
  <path d="M4,6.64a.85.85,0,0,1-.85.86H1.36a.86.86,0,0,0-.86.85v0a.86.86,0,0,0,.86.86H3.15A.85.85,0,0,1,4,10.1V11H4v.88a.85.85,0,0,0,.86.86h0a.85.85,0,0,0,.85-.86V11h0V6.6a.85.85,0,0,0-.85-.85h0A.85.85,0,0,0,4,6.6Z"/>
  <path d="M9.25,3.15v0a.85.85,0,0,0-.85-.85H6.61a.85.85,0,0,1-.86-.85v0A.85.85,0,0,0,4.9.5h0A.85.85,0,0,0,4,1.35v0a.85.85,0,0,1-.85.85h0a.85.85,0,0,1-.85-.85v0A.85.85,0,0,0,1.4.5h0a.85.85,0,0,0-.85.86v.89h0V4.89a.85.85,0,0,0,.85.86h0a.85.85,0,0,0,.85-.86v0A.85.85,0,0,1,3.1,4H4.9a.85.85,0,0,1,.85.85v0a.85.85,0,0,0,.86.86h0a.85.85,0,0,0,.85-.86v0A.85.85,0,0,1,8.36,4h0A.85.85,0,0,0,9.25,3.15Z"/>
  <path d="M11,11.85v0a.85.85,0,0,0,.86.86h0a.85.85,0,0,1,.85.85v.05a.85.85,0,0,0,.85.85h.05a.85.85,0,0,0,.85-.85v-1.8a.85.85,0,0,0-.85-.85H11.86A.85.85,0,0,0,11,11.85Z"/>
  <rect x="7.5" y="11" width="1.75" height="1.75" rx="0.85"/>
  <rect x="0.5" y="11" width="1.75" height="1.75" rx="0.85"/>
</svg>
