<svg xmlns="http://www.w3.org/2000/svg" viewBox="0 0 15 15" fill="currentColor">
  <title>Pattern Squares</title>
  <rect x="4.11" y="11.11" width="1.53" height="1.52"/>
  <rect x="4.11" y="9.36" width="1.53" height="1.52"/>
  <rect x="9.36" y="7.61" width="1.53" height="1.53"/>
  <rect x="2.36" y="2.36" width="1.53" height="1.53"/>
  <rect x="4.11" y="7.61" width="1.53" height="1.53"/>
  <rect x="4.11" y="5.86" width="1.53" height="1.53"/>
  <rect x="12.86" y="0.61" width="1.53" height="1.53"/>
  <rect x="0.61" y="11.11" width="1.53" height="1.53"/>
  <rect x="11.11" y="7.61" width="1.53" height="1.53"/>
  <rect x="12.86" y="12.86" width="1.53" height="1.53"/>
  <rect x="11.11" y="11.11" width="1.53" height="1.53"/>
  <rect x="12.86" y="5.86" width="1.53" height="1.53"/>
  <rect x="12.86" y="2.36" width="1.53" height="1.53"/>
  <rect x="11.11" y="4.11" width="1.53" height="1.53"/>
  <rect x="11.11" y="2.36" width="1.53" height="1.53"/>
  <rect x="12.86" y="11.11" width="1.53" height="1.53"/>
  <rect x="4.11" y="0.61" width="1.53" height="1.53"/>
  <rect x="7.61" y="2.36" width="1.53" height="1.53"/>
  <rect x="7.61" y="7.61" width="1.53" height="1.53"/>
  <rect x="7.61" y="5.86" width="1.53" height="1.53"/>
  <rect x="7.61" y="11.11" width="1.53" height="1.53"/>
  <rect x="0.61" y="4.11" width="1.53" height="1.53"/>
  <rect x="0.61" y="0.61" width="1.53" height="1.53"/>
  <rect x="0.61" y="2.36" width="1.53" height="1.53"/>
  <rect x="0.61" y="7.61" width="1.53" height="1.53"/>
  <rect x="4.11" y="2.36" width="1.53" height="1.53"/>
  <rect x="2.36" y="12.86" width="1.53" height="1.53"/>
  <rect x="5.86" y="2.36" width="1.53" height="1.53"/>
  <rect x="2.36" y="7.61" width="1.53" height="1.53"/>
  <rect x="5.86" y="12.86" width="1.53" height="1.53"/>
  <rect x="5.86" y="4.11" width="1.53" height="1.53"/>
</svg>
